<svg width="166" height="128" fill="none" xmlns="http://www.w3.org/2000/svg"><path d="M140.081 11.146a135.461 135.461 0 0 0-33.68-10.47c-.209-.047-.419.07-.536.256-1.445 2.595-3.076 5.984-4.195 8.648-12.726-1.916-25.382-1.916-37.828 0-1.12-2.711-2.797-6.053-4.266-8.648a.555.555 0 0 0-.536-.257 135.45 135.45 0 0 0-33.68 10.471c-.093.047-.163.117-.233.187C3.684 43.469-2.189 74.811.677 105.779c0 .14.094.304.21.398 14.148 10.423 27.876 16.757 41.325 20.941.21.07.443 0 .583-.187a99.312 99.312 0 0 0 8.46-13.79.53.53 0 0 0-.28-.724c-4.498-1.706-8.786-3.81-12.912-6.17-.326-.187-.35-.655-.046-.889.862-.654 1.724-1.332 2.563-2.01.14-.116.35-.14.537-.07 27.083 12.411 56.404 12.411 83.161 0 .187-.093.396-.07.536.07.839.678 1.702 1.379 2.564 2.01.303.234.28.702-.046.889a86.254 86.254 0 0 1-12.913 6.17c-.303.117-.419.444-.28.748a111.714 111.714 0 0 0 8.438 13.789c.14.187.373.257.582.187 13.519-4.183 27.224-10.517 41.395-20.941.116-.094.21-.234.21-.374 3.449-35.806-5.781-66.89-24.473-94.446a.333.333 0 0 0-.21-.187v-.047Zm-84.77 75.795c-8.158 0-14.87-7.502-14.87-16.734 0-9.232 6.596-16.734 14.87-16.734s15.01 7.572 14.87 16.734c0 9.209-6.596 16.734-14.87 16.734Zm54.983 0c-8.158 0-14.87-7.502-14.87-16.734 0-9.232 6.595-16.734 14.87-16.734 8.274 0 15.01 7.572 14.87 16.734 0 9.209-6.526 16.734-14.87 16.734Z" fill="#866251" fill-opacity=".9" style="mix-blend-mode:multiply"/></svg>