<svg width="164" height="132" fill="none" xmlns="http://www.w3.org/2000/svg"><path d="M163.476 15.624a67.11 67.11 0 0 1-19.208 5.246c6.903-4.125 12.208-10.654 14.701-18.434a67.14 67.14 0 0 1-21.236 8.088A33.461 33.461 0 0 0 113.326 0C94.86 0 79.89 14.918 79.89 33.319c0 2.615.293 5.156.863 7.592C52.973 39.523 28.33 26.261 11.836 6.1A33.097 33.097 0 0 0 7.305 22.85c0 11.564 5.9 21.755 14.872 27.732a33.422 33.422 0 0 1-15.15-4.166v.422c0 16.144 11.524 29.608 26.82 32.67a33.513 33.513 0 0 1-15.1.568C23 93.314 35.353 102.945 49.981 103.221c-11.441 8.94-25.865 14.268-41.528 14.268-2.698 0-5.362-.155-7.978-.463C15.275 126.478 32.853 132 51.734 132c61.502 0 95.142-50.77 95.142-94.808 0-1.445-.033-2.883-.098-4.312a67.803 67.803 0 0 0 16.682-17.248l.016-.008Z" fill="#866251" fill-opacity=".9" style="mix-blend-mode:multiply"/></svg>